<svg width="393" height="78" viewBox="0 0 393 78" fill="none" xmlns="http://www.w3.org/2000/svg">
<g clip-path="url(#clip0_43_88)">
<path d="M82.249 34.102C82.3697 30.4539 81.6451 27.3987 80.2033 25.1242C79.1767 23.5704 77.8557 22.4895 76.2328 21.8964C74.4891 21.2959 72.2019 20.9356 69.4315 20.9356H60.3431C60.2223 20.9356 60.1015 20.9957 60.0411 21.1758L45.3592 75.5604C45.3592 75.6204 45.3592 75.7405 45.4196 75.8006C45.48 75.8606 45.5404 75.9207 45.6612 75.9207H51.617C58.539 75.9207 63.7701 74.7272 67.0764 72.3326C69.7863 70.4184 72.1339 67.6035 74.0588 63.9553C76.0441 60.1871 77.8482 55.2178 79.4711 49.2351C81.2752 42.712 82.181 37.6301 82.2414 34.0945L82.249 34.102ZM55.1119 68.9246L66.2461 27.699H66.9707C70.8205 27.699 72.9869 29.1928 73.5908 32.1879C74.1947 35.2955 73.4096 41.0455 71.1828 49.3627C69.0768 57.0794 66.9103 62.3489 64.6835 64.9762C62.5171 67.551 59.3316 68.8646 55.1195 68.9246H55.1119Z" fill="#00AEEF"/>
<path d="M104.449 57.1995C105.355 53.9117 105.891 50.9766 106.072 48.582C106.253 46.1875 106.072 44.0932 105.529 42.5393C104.985 40.9254 104.027 39.6643 102.758 38.8912C101.498 38.1105 99.8069 37.6976 97.7612 37.6976C90.0013 37.6976 84.3475 44.1007 80.9129 56.7866C78.7464 64.7435 78.8672 70.2458 81.1544 73.2409C82.5358 75.0349 84.7023 75.9357 87.6537 75.9357C95.4136 75.9357 101.067 69.6528 104.442 57.207L104.449 57.1995ZM89.4729 69.0448C88.0312 69.0448 87.2461 68.204 87.0649 66.47C86.9442 64.676 87.4877 61.3806 88.7483 56.7791C90.0089 52.1701 91.2166 48.8823 92.2961 47.0282C93.4359 45.2341 94.7645 44.3334 96.2666 44.3334C97.7688 44.3334 98.4934 45.1741 98.6142 46.9081C98.735 48.7622 98.1311 52.05 96.8705 56.8392C95.6099 61.4482 94.4021 64.676 93.3227 66.3499C92.2961 68.144 90.9751 69.0448 89.4729 69.0448Z" fill="#00AEEF"/>
<path d="M147.468 40.445C146.442 39.0113 144.517 38.2906 141.875 38.2906C138.689 38.2906 135.678 39.8445 133.028 42.9597C132.545 39.852 130.62 38.2906 127.314 38.2906C124.423 38.2906 121.72 39.7244 119.131 42.5393L120.037 39.2515C120.037 39.1914 120.037 39.0713 119.977 39.0113C119.916 38.9512 119.856 38.8912 119.735 38.8912H112.994C112.873 38.8912 112.753 38.9512 112.692 39.1314L102.887 75.5679C102.887 75.6279 102.887 75.748 102.947 75.8081C103.007 75.8682 103.068 75.9282 103.189 75.9282H109.929C110.05 75.9282 110.171 75.8682 110.231 75.688L116.731 51.6972C117.395 49.2426 118.172 47.4486 119.139 46.4352C120.045 45.4143 121.184 44.9414 122.687 44.9414C123.351 44.9414 123.887 45.0615 124.309 45.3017C124.672 45.5419 124.913 45.8422 125.095 46.3226C125.215 46.803 125.276 47.5161 125.155 48.3568C125.034 49.2576 124.793 50.3311 124.491 51.5846L118.052 75.5754C118.052 75.6355 118.052 75.7556 118.112 75.8156C118.172 75.8757 118.233 75.9357 118.354 75.9357H125.396C125.517 75.9357 125.638 75.8757 125.698 75.6955L132.137 51.7047C132.862 49.07 133.639 47.2759 134.425 46.3226C135.21 45.4218 136.41 44.9489 137.912 44.9489C139.233 44.9489 139.958 45.3693 140.139 46.2025C140.38 47.1033 140.139 48.8973 139.414 51.5846L132.975 75.5754C132.975 75.6355 132.975 75.7556 133.036 75.8156C133.096 75.8757 133.156 75.9357 133.277 75.9357H140.078C140.199 75.9357 140.32 75.8757 140.38 75.6955L148.201 46.6153C148.684 43.9205 148.563 41.8262 147.476 40.4525L147.468 40.445Z" fill="#00AEEF"/>
<path d="M176.41 38.4107C176.349 38.3507 176.289 38.2906 176.168 38.2906H169.427C169.306 38.2906 169.186 38.3507 169.125 38.5308L168.28 41.6986C167.314 39.0638 165.449 37.6901 162.867 37.6901C159.742 37.6901 157.032 39.244 154.745 42.2391C152.518 45.2341 150.533 49.9557 148.85 56.2387C147.046 62.8819 146.442 67.8437 147.046 70.9589C147.65 74.1867 149.574 75.8682 152.76 75.8682C154.383 75.8682 155.832 75.4478 157.032 74.6746C157.999 74.0741 159.078 73.0007 160.218 71.6195L159.312 74.9674C159.312 75.0274 159.312 75.1475 159.372 75.2076C159.433 75.2676 159.493 75.3277 159.614 75.3277H166.355C166.476 75.3277 166.596 75.2676 166.657 75.0875L176.462 38.6509C176.523 38.5909 176.462 38.4708 176.402 38.4107H176.41ZM164.438 56.7791C163.298 61.1479 162.03 64.3757 160.829 66.47C159.69 68.3241 158.361 69.285 156.98 69.285C155.477 69.285 154.692 68.4442 154.572 66.7102C154.451 64.8561 155.055 61.5082 156.315 56.7791C157.576 52.05 158.784 48.8222 159.924 47.0882C161.063 45.2942 162.392 44.3934 163.894 44.3934C165.215 44.3934 165.94 45.2942 166.121 47.0882C166.181 49.1225 165.638 52.4104 164.438 56.7791Z" fill="#00AEEF"/>
<path d="M187.181 39.0113C187.121 38.9512 187.061 38.8912 186.94 38.8912H180.139C180.018 38.8912 179.897 38.9512 179.837 39.1314L170.031 75.5679C170.031 75.6279 170.031 75.748 170.091 75.8081C170.152 75.8681 170.212 75.9282 170.333 75.9282H177.134C177.255 75.9282 177.376 75.8681 177.436 75.688L187.242 39.2515C187.242 39.1314 187.242 39.0713 187.181 39.0113Z" fill="#00AEEF"/>
<path d="M184.954 33.0886C186.275 33.0886 187.544 32.6082 188.744 31.7149C189.944 30.7541 190.729 29.6206 191.091 28.307C191.454 26.9934 191.273 25.7923 190.548 24.839C189.823 23.8782 188.804 23.4053 187.476 23.4053C186.215 23.4053 184.887 23.8857 183.626 24.7789C182.426 25.7398 181.641 26.8132 181.339 28.1268C180.976 29.5005 181.097 30.7016 181.822 31.6549C182.546 32.6157 183.626 33.0886 184.947 33.0886H184.954Z" fill="#00AEEF"/>
<path d="M221.595 21.0632C221.535 21.0032 221.474 20.9431 221.354 20.9431H213.956C213.835 20.9431 213.714 21.0032 213.654 21.1833L208.181 41.4659C207.396 44.461 206.619 47.6888 206.015 51.0967C205.653 53.131 205.29 55.2853 204.935 57.5598C204.996 52.4704 204.815 47.5687 204.452 42.8996L202.95 21.1833C202.95 21.0032 202.829 20.9431 202.648 20.9431H195.787C195.666 20.9431 195.545 21.0032 195.485 21.1833L180.803 75.5679C180.803 75.6279 180.803 75.748 180.863 75.8081C180.924 75.8681 180.984 75.9282 181.105 75.9282H188.382C188.502 75.9282 188.623 75.8081 188.683 75.688L194.7 51.9975C194.881 51.3369 195.062 50.6839 195.183 50.1434C195.304 49.6029 195.424 49.1225 195.485 48.7697L196.926 42.0664L197.651 38.4182C197.591 40.3925 197.53 42.3066 197.591 44.1607C197.591 46.5553 197.712 48.8898 197.832 51.1643L199.516 75.6355C199.516 75.8156 199.636 75.8757 199.818 75.8757H206.74C206.86 75.8757 206.981 75.8156 207.042 75.6355L221.723 21.2509C221.663 21.2509 221.603 21.1308 221.603 21.0707L221.595 21.0632Z" fill="#3E444F"/>
<path d="M236.277 62.5817C236.217 62.5216 236.156 62.4616 236.036 62.4616H229.717C229.597 62.4616 229.476 62.5216 229.415 62.7018C228.215 67.2507 226.23 69.5852 223.52 69.5852C222.735 69.5852 222.139 69.345 221.776 68.8045C220.636 67.3708 220.81 63.8352 222.259 58.4531H237.545C237.666 58.4531 237.787 58.393 237.847 58.2129L238.089 57.3721C240.316 48.9949 240.316 43.2524 237.968 40.2573C236.647 38.5834 234.662 37.7427 231.952 37.7427C228.102 37.7427 224.788 39.3566 222.086 42.4718C219.436 45.5794 217.209 50.4286 215.466 56.8917C214.56 60.1195 214.024 62.9945 213.843 65.329C213.662 67.7236 213.782 69.6978 214.326 71.2517C214.869 72.8656 215.768 74.0065 217.036 74.7797C218.296 75.5604 219.927 75.9132 221.912 75.9132C228.593 75.9132 233.461 71.5444 236.292 62.8669C236.353 62.7468 236.353 62.6267 236.292 62.5666L236.277 62.5817ZM230.261 44.0331C231.522 44.0331 232.186 44.5736 232.427 45.8272C232.669 46.9606 232.427 49.3552 231.763 53.0034H223.822C225.083 49.4153 226.109 47.0807 227.007 45.9398C227.853 44.6261 228.932 44.0256 230.253 44.0256L230.261 44.0331Z" fill="#3E444F"/>
<path d="M256.613 59.1737C256.371 58.393 255.888 57.5598 255.292 56.7191C254.688 55.8784 253.85 54.925 252.823 53.9041C250.415 51.5696 249.396 49.5954 249.812 47.9815C249.932 47.4411 250.174 46.9606 250.536 46.4877C250.899 46.0073 251.261 45.5869 251.736 45.2341C252.22 44.8738 252.703 44.6336 253.239 44.3934C253.782 44.2133 254.318 44.0932 254.922 44.0932C256.666 44.0932 258.168 44.6937 259.436 45.8272C259.496 45.8872 259.617 45.9473 259.738 45.8872C259.859 45.8872 259.919 45.7671 259.919 45.7071L261.602 39.4241C261.663 39.304 261.602 39.1839 261.482 39.1239C259.798 38.0504 257.813 37.51 255.707 37.51C252.695 37.51 249.993 38.4708 247.585 40.3849C245.237 42.2991 243.614 44.7537 242.829 47.7413C242.225 49.9557 242.225 51.9299 242.829 53.5438C243.433 55.0977 244.935 56.9518 247.222 59.2263C247.887 59.8868 248.423 60.4798 248.785 60.9603C249.208 61.4407 249.449 61.9211 249.63 62.2739C249.932 63.0546 249.993 63.9478 249.691 65.0288C248.906 67.9638 247.102 69.3375 244.097 69.3375C242.414 69.3375 240.851 68.6169 239.342 67.2432C239.281 67.1831 239.161 67.1231 239.04 67.1831C238.919 67.1831 238.859 67.3032 238.859 67.3633L237.115 73.8864C237.055 74.0065 237.115 74.1266 237.236 74.1867C238.979 75.3802 240.844 75.9808 242.89 75.9808C246.135 75.9808 249.027 74.9599 251.495 72.9857C253.963 71.0115 255.707 68.3166 256.552 64.9687C257.096 62.6342 257.156 60.66 256.613 59.1662V59.1737Z" fill="#3E444F"/>
<path d="M272.019 33.0886C273.34 33.0886 274.609 32.6082 275.809 31.7149C277.009 30.7541 277.794 29.6206 278.156 28.307C278.519 26.9934 278.338 25.7923 277.613 24.839C276.888 23.8782 275.869 23.4053 274.541 23.4053C273.28 23.4053 271.952 23.8857 270.691 24.7789C269.491 25.7398 268.706 26.8132 268.404 28.1268C268.041 29.5005 268.162 30.7016 268.887 31.6549C269.611 32.6157 270.691 33.0886 272.012 33.0886H272.019Z" fill="#3E444F"/>
<path d="M274.246 39.0113C274.186 38.9512 274.125 38.8912 274.005 38.8912H267.203C267.083 38.8912 266.962 38.9512 266.902 39.1314L257.096 75.5679C257.096 75.6279 257.096 75.748 257.156 75.8081C257.217 75.8681 257.277 75.9282 257.398 75.9282H264.199C264.32 75.9282 264.441 75.8681 264.501 75.688L274.307 39.2515C274.307 39.1314 274.307 39.0713 274.246 39.0113Z" fill="#3E444F"/>
<path d="M300.779 38.4107C300.719 38.3507 300.659 38.2906 300.538 38.2906H293.797C293.676 38.2906 293.555 38.3507 293.495 38.5308L292.65 41.6986C291.683 39.0638 289.819 37.6901 287.237 37.6901C284.112 37.6901 281.402 39.244 279.115 42.2391C276.888 45.2341 274.903 49.9557 273.22 56.2387C271.416 62.8819 270.812 67.8437 271.416 70.9589C272.019 74.1867 273.944 75.8682 277.13 75.8682C278.753 75.8682 280.202 75.4478 281.402 74.6746C282.369 74.0741 283.448 73.0007 284.588 71.6195L283.682 74.9674C283.682 75.0274 283.682 75.1475 283.742 75.2076C283.803 75.2676 283.863 75.3277 283.984 75.3277H290.725C290.846 75.3277 290.966 75.2676 291.027 75.0875L300.832 38.6509C300.832 38.5909 300.832 38.4708 300.772 38.4107H300.779ZM288.807 56.7791C287.668 61.1479 286.399 64.3757 285.199 66.47C284.059 68.3241 282.731 69.285 281.349 69.285C279.847 69.285 279.062 68.4442 278.941 66.7102C278.821 64.8561 279.425 61.5082 280.685 56.7791C281.946 52.05 283.154 48.8222 284.293 47.0882C285.433 45.2942 286.762 44.3934 288.264 44.3934C289.585 44.3934 290.31 45.2942 290.491 47.0882C290.491 49.1225 289.947 52.4104 288.807 56.7791Z" fill="#3E444F"/>
<path d="M38.324 28.7198L0 46.848L38.324 75.9282V28.7198Z" fill="#00AEEF"/>
<path d="M58.7805 0L38.324 9.69089V75.9282L58.7805 0Z" fill="#3E444F"/>
<path d="M384.523 23.2176V28.3295H382.492V23.2176H380.666V21.5436H386.153L386.433 23.2176H384.523Z" fill="#3E444F"/>
<path d="M390.977 28.3295V25.7398H389.09V28.3295H387.059V21.5436H389.09V24.0058H390.977V21.5436H393.008V28.3295H390.977Z" fill="#3E444F"/>
<path d="M309.46 28.4196L323.485 16.4317L324.784 35.866L309.46 28.4196Z" fill="#00AEEF"/>
<path d="M323.485 16.4317L327.599 78L342.191 66.3874L339.315 23.2701L323.485 16.4317Z" fill="#3E444F"/>
<path d="M356.088 16.5593L373.328 17.8054L382.032 33.6967L345.406 31.0619L356.088 16.5593Z" fill="#3E444F"/>
<path d="M345.396 31.0621L343.41 58.3444L358.302 59.4163L360.288 32.134L345.396 31.0621Z" fill="#00AEEF"/>
<path d="M359.734 39.7449L358.656 54.5541L373.736 55.6395L374.814 40.8304L359.734 39.7449Z" fill="#3E444F"/>
<path d="M343.421 58.3405L373.404 60.5024L372.264 76.0633L356.239 74.9073L343.421 58.3405Z" fill="#3E444F"/>
<path d="M374.831 40.8353L386.84 47.0432L385.565 64.6309L372.264 76.0633L374.831 40.8353Z" fill="#00AEEF"/>
</g>
<defs>
<clipPath id="clip0_43_88">
<rect width="393" height="78" fill="white"/>
</clipPath>
</defs>
</svg>
